<?xml version="1.0" encoding="UTF-8"?>
<svg id="LOGO_OUTLINE" data-name="LOGO OUTLINE" xmlns="http://www.w3.org/2000/svg" viewBox="0 0 420 480">
  <defs>
    <style>
      .cls-1 {
        stroke: #000;
      }

      .cls-1, .cls-2 {
        fill: none;
        stroke-miterlimit: 10;
        stroke-width: 6px;
      }

      .cls-2 {
        stroke: #231f20;
      }
    </style>
  </defs>
  <path class="cls-2" d="M42.7,373.77c12.76-7.54,36.23,4.54,52.73,15.6,0,0,63.91-74.51,97.55-50.41,48.94,35.06-80.09,53.45-24.96,125.69,0,0,16.36-72.59,59.01-10.18,0,0,14.11-52.89,103.69-3.86,0,0-24.52-46.05,52.27-41.06,0,0-22.48-17.03,27.62-34.76-111.33-3.21-90.74-90.3-90.74-90.3,4.68-22,27.65-15.15,36.82-12.91-10.31-14.27-51.8-31.51-51.8-31.51,4.83-1.69,17.16-5.23,22.2-4.34-142.91-70.21-161.14,49.54-161.14,49.54-7.95,22.71-13.13,21.21-66.31,20.11-40.1-.83-55.27-1.6-79.73,99.61l21.2-29.76c.42-.59.97-1.08,1.59-1.45Z"/>
  <path class="cls-2" d="M166.02,284.85c3.9,34.71,24.45,31.98,26.41,32.18"/>
  <path class="cls-2" d="M224.68,317.03s-119.06-9.99-183.23,57.71"/>
  <path class="cls-2" d="M164.98,336.21c16.85-19.18,30.89-19.46,30.89-19.46"/>
  <path class="cls-2" d="M210.83,374.7c-4.79,7.72-15.75,17.55-21.36,24.7,6.55-2.91,17.36-7.09,30.13,7.81,20.34-11.91,22.21-9.53,41.28-5.79,1.04-2.02,1.72-9.62,33.64-9.19"/>
  <path class="cls-2" d="M263.72,343.43c.47-3.06-3.12-10.86,16.28-15.84"/>
  <path class="cls-2" d="M284.09,277.04c-19.11-15.59-47.42-28.65-53.74-28.83-1.91,2.15-10.09,6.11-13.66,7.38,22.87,6.59,34.57,10.58,52.72,27.45,2.79-3.14,8.06-4.94,14.68-6Z"/>
  <path class="cls-2" d="M68.85,319.43c-9.17,3.02-15.44,16.62-19.15,25.53"/>
  <path class="cls-1" d="M256.7,245.26s-17.68,21.7-25.68,38.76c4.43-2.59,22.47-3.01,22.47-3.01,3.42-10.62,14.47-20.94,27.15-34.21,0,0-18.79,2.32-23.94-1.53Z"/>
</svg>